<svg width="32" height="32" viewBox="0 0 32 32" fill="none" xmlns="http://www.w3.org/2000/svg">
  <path d="M8 12C8 8.686 10.686 6 14 6C15.526 6 16.922 6.67 17.9 7.75C18.478 7.272 19.208 7 20 7C22.209 7 24 8.791 24 11C24 11.55 23.88 12.07 23.67 12.54C25.49 13.84 26.67 16.02 26.67 18.5C26.67 22.64 23.31 26 19.17 26H12.83C8.69 26 5.33 22.64 5.33 18.5C5.33 15.85 6.69 13.52 8.77 12.25C8.27 11.56 8 10.72 8 9.83V12Z" 
        fill="#3B82F6" stroke="#1E40AF" stroke-width="1.5" stroke-linecap="round" stroke-linejoin="round"/>
  <circle cx="13" cy="16" r="1" fill="#1E40AF"/>
  <circle cx="19" cy="16" r="1" fill="#1E40AF"/>
  <path d="M15 19C15.5 19.5 16.5 19.5 17 19" stroke="#1E40AF" stroke-width="1.5" stroke-linecap="round"/>
</svg> 